<svg style="display: block;" viewBox="0 0 14.625 15.1878" fill="none" xmlns="http://www.w3.org/2000/svg">
<path id="Vector" d="M13.5 1.6875H7.875V0.5625C7.875 0.413316 7.81574 0.270242 7.71025 0.164752C7.60476 0.0592632 7.46168 0 7.3125 0C7.16332 0 7.02024 0.0592632 6.91475 0.164752C6.80926 0.270242 6.75 0.413316 6.75 0.5625V1.6875H1.125C0.826631 1.6875 0.540483 1.80603 0.329505 2.017C0.118526 2.22798 0 2.51413 0 2.8125V11.25C0 11.5484 0.118526 11.8345 0.329505 12.0455C0.540483 12.2565 0.826631 12.375 1.125 12.375H3.8925L2.37305 14.2734C2.27981 14.39 2.23668 14.5388 2.25317 14.6871C2.26965 14.8355 2.34439 14.9712 2.46094 15.0645C2.57749 15.1577 2.7263 15.2008 2.87465 15.1843C3.02299 15.1679 3.15871 15.0931 3.25195 14.9766L5.3325 12.375H9.2925L11.373 14.9766C11.4192 15.0343 11.4763 15.0823 11.541 15.118C11.6058 15.1536 11.6769 15.1762 11.7504 15.1843C11.8238 15.1925 11.8981 15.1861 11.9691 15.1655C12.0401 15.145 12.1064 15.1106 12.1641 15.0645C12.2218 15.0183 12.2698 14.9612 12.3055 14.8965C12.3411 14.8317 12.3637 14.7606 12.3718 14.6871C12.38 14.6137 12.3736 14.5394 12.353 14.4684C12.3325 14.3974 12.2981 14.3311 12.252 14.2734L10.7325 12.375H13.5C13.7984 12.375 14.0845 12.2565 14.2955 12.0455C14.5065 11.8345 14.625 11.5484 14.625 11.25V2.8125C14.625 2.51413 14.5065 2.22798 14.2955 2.017C14.0845 1.80603 13.7984 1.6875 13.5 1.6875ZM13.5 11.25H1.125V2.8125H13.5V11.25ZM5.625 7.3125V9C5.625 9.14918 5.56574 9.29226 5.46025 9.39775C5.35476 9.50324 5.21168 9.5625 5.0625 9.5625C4.91332 9.5625 4.77024 9.50324 4.66475 9.39775C4.55926 9.29226 4.5 9.14918 4.5 9V7.3125C4.5 7.16332 4.55926 7.02024 4.66475 6.91475C4.77024 6.80926 4.91332 6.75 5.0625 6.75C5.21168 6.75 5.35476 6.80926 5.46025 6.91475C5.56574 7.02024 5.625 7.16332 5.625 7.3125ZM7.875 6.1875V9C7.875 9.14918 7.81574 9.29226 7.71025 9.39775C7.60476 9.50324 7.46168 9.5625 7.3125 9.5625C7.16332 9.5625 7.02024 9.50324 6.91475 9.39775C6.80926 9.29226 6.75 9.14918 6.75 9V6.1875C6.75 6.03832 6.80926 5.89524 6.91475 5.78975C7.02024 5.68426 7.16332 5.625 7.3125 5.625C7.46168 5.625 7.60476 5.68426 7.71025 5.78975C7.81574 5.89524 7.875 6.03832 7.875 6.1875ZM10.125 5.0625V9C10.125 9.14918 10.0657 9.29226 9.96025 9.39775C9.85476 9.50324 9.71168 9.5625 9.5625 9.5625C9.41332 9.5625 9.27024 9.50324 9.16475 9.39775C9.05926 9.29226 9 9.14918 9 9V5.0625C9 4.91332 9.05926 4.77024 9.16475 4.66475C9.27024 4.55926 9.41332 4.5 9.5625 4.5C9.71168 4.5 9.85476 4.55926 9.96025 4.66475C10.0657 4.77024 10.125 4.91332 10.125 5.0625Z" fill="#009DFF"/>
</svg>
