<svg style="display: block;" viewBox="0 0 16.8747 13.5" fill="none" xmlns="http://www.w3.org/2000/svg">
<path id="Vector" d="M4.29733 4.36994L1.44124 6.75002L4.29733 9.1301C4.35572 9.17684 4.4042 9.23476 4.43994 9.30047C4.47568 9.36617 4.49795 9.43835 4.50546 9.51277C4.51297 9.58718 4.50556 9.66235 4.48366 9.73387C4.46177 9.80539 4.42583 9.87183 4.37795 9.92929C4.33007 9.98676 4.27122 10.0341 4.20482 10.0685C4.13843 10.103 4.06583 10.1238 3.99128 10.1299C3.91673 10.1359 3.84172 10.127 3.77064 10.1038C3.69956 10.0805 3.63385 10.0432 3.57733 9.99424L0.202331 7.18174C0.139002 7.12895 0.0880523 7.06288 0.053088 6.98822C0.0181237 6.91355 0 6.83211 0 6.74967C0 6.66722 0.0181237 6.58578 0.053088 6.51112C0.0880523 6.43645 0.139002 6.37039 0.202331 6.3176L3.57733 3.5051C3.69202 3.40962 3.83993 3.36361 3.98854 3.37719C4.13715 3.39077 4.27428 3.46283 4.36975 3.57752C4.46523 3.6922 4.51124 3.84012 4.49766 3.98873C4.48408 4.13734 4.41202 4.27446 4.29733 4.36994ZM16.6723 6.3176L13.2973 3.5051C13.2405 3.45782 13.175 3.42219 13.1044 3.40025C13.0339 3.3783 12.9597 3.37047 12.8861 3.37719C12.8125 3.38392 12.741 3.40507 12.6756 3.43944C12.6102 3.47381 12.5522 3.52073 12.5049 3.57752C12.4094 3.6922 12.3634 3.84012 12.377 3.98873C12.3906 4.13734 12.4626 4.27446 12.5773 4.36994L15.4334 6.75002L12.5773 9.1301C12.5189 9.17684 12.4705 9.23476 12.4347 9.30047C12.399 9.36617 12.3767 9.43835 12.3692 9.51277C12.3617 9.58718 12.3691 9.66235 12.391 9.73387C12.4129 9.80539 12.4488 9.87183 12.4967 9.92929C12.5446 9.98676 12.6034 10.0341 12.6698 10.0685C12.7362 10.103 12.8088 10.1238 12.8834 10.1299C12.9579 10.1359 13.0329 10.127 13.104 10.1038C13.1751 10.0805 13.2408 10.0432 13.2973 9.99424L16.6723 7.18174C16.7357 7.12895 16.7866 7.06288 16.8216 6.98822C16.8565 6.91355 16.8747 6.83211 16.8747 6.74967C16.8747 6.66722 16.8565 6.58578 16.8216 6.51112C16.7866 6.43645 16.7357 6.37039 16.6723 6.3176ZM10.8793 0.0337686C10.8098 0.00855898 10.7361 -0.00272682 10.6623 0.000555606C10.5885 0.00383803 10.5161 0.0216245 10.4492 0.0528992C10.3823 0.0841739 10.3221 0.128324 10.2723 0.18283C10.2224 0.237335 10.1838 0.301128 10.1586 0.370566L5.65858 12.7456C5.63326 12.815 5.62189 12.8888 5.62512 12.9627C5.62835 13.0366 5.64611 13.1091 5.6774 13.1761C5.70868 13.2431 5.75287 13.3033 5.80743 13.3532C5.86199 13.4031 5.92586 13.4418 5.99538 13.467C6.057 13.4889 6.12193 13.5001 6.18733 13.5C6.30285 13.5 6.41557 13.4645 6.51017 13.3982C6.60477 13.3319 6.67666 13.2381 6.71608 13.1295L11.2161 0.754472C11.2413 0.685036 11.2526 0.611314 11.2493 0.537516C11.246 0.463718 11.2282 0.391289 11.197 0.324365C11.1657 0.257441 11.1215 0.197332 11.067 0.147472C11.0125 0.0976111 10.9487 0.0589746 10.8793 0.0337686Z" fill="#FF9900"/>
</svg>
