<svg style="display: block;" viewBox="0 0 13.5 13.5" fill="none" xmlns="http://www.w3.org/2000/svg">
<path id="Vector" d="M12.375 0H1.125C0.826631 0 0.540483 0.118526 0.329505 0.329505C0.118526 0.540483 0 0.826631 0 1.125V12.375C0 12.6734 0.118526 12.9595 0.329505 13.1705C0.540483 13.3815 0.826631 13.5 1.125 13.5H12.375C12.6734 13.5 12.9595 13.3815 13.1705 13.1705C13.3815 12.9595 13.5 12.6734 13.5 12.375V1.125C13.5 0.826631 13.3815 0.540483 13.1705 0.329505C12.9595 0.118526 12.6734 0 12.375 0ZM1.125 1.125H12.375V6.56578L10.639 4.82906C10.428 4.61824 10.142 4.49982 9.84375 4.49982C9.54551 4.49982 9.25947 4.61824 9.04852 4.82906L1.50258 12.375H1.125V1.125ZM12.375 12.375H3.09375L9.84375 5.625L12.375 8.15625V12.375ZM4.5 6.1875C4.83376 6.1875 5.16002 6.08853 5.43752 5.9031C5.71503 5.71768 5.93132 5.45413 6.05905 5.14578C6.18677 4.83743 6.22019 4.49813 6.15508 4.17079C6.08996 3.84344 5.92924 3.54276 5.69324 3.30676C5.45724 3.07076 5.15656 2.91004 4.82921 2.84492C4.50187 2.77981 4.16257 2.81323 3.85422 2.94095C3.54587 3.06868 3.28232 3.28497 3.0969 3.56248C2.91147 3.83998 2.8125 4.16624 2.8125 4.5C2.8125 4.94755 2.99029 5.37678 3.30676 5.69324C3.62322 6.00971 4.05245 6.1875 4.5 6.1875ZM4.5 3.9375C4.61125 3.9375 4.72001 3.97049 4.81251 4.0323C4.90501 4.09411 4.97711 4.18196 5.01968 4.28474C5.06226 4.38752 5.0734 4.50062 5.05169 4.60974C5.02999 4.71885 4.97641 4.81908 4.89775 4.89775C4.81908 4.97641 4.71885 5.02999 4.60974 5.05169C4.50062 5.0734 4.38752 5.06226 4.28474 5.01968C4.18196 4.97711 4.09411 4.90501 4.0323 4.81251C3.97049 4.72001 3.9375 4.61125 3.9375 4.5C3.9375 4.35082 3.99676 4.20774 4.10225 4.10225C4.20774 3.99676 4.35082 3.9375 4.5 3.9375Z" fill="#00DDFF"/>
</svg>
