<svg style="display: block;" viewBox="0 0 15.1875 13.5" fill="none" xmlns="http://www.w3.org/2000/svg">
<path id="Vector" d="M10.6875 5.625H14.0625C14.3609 5.625 14.647 5.50647 14.858 5.29549C15.069 5.08452 15.1875 4.79837 15.1875 4.5V1.125C15.1875 0.826631 15.069 0.540483 14.858 0.329505C14.647 0.118526 14.3609 0 14.0625 0H10.6875C10.3891 0 10.103 0.118526 9.89201 0.329505C9.68103 0.540483 9.5625 0.826631 9.5625 1.125V2.25H8.4375C7.98995 2.25 7.56072 2.42779 7.24426 2.74426C6.92779 3.06072 6.75 3.48995 6.75 3.9375V6.1875H4.5V5.625C4.5 5.32663 4.38147 5.04048 4.17049 4.82951C3.95952 4.61853 3.67337 4.5 3.375 4.5H1.125C0.826631 4.5 0.540483 4.61853 0.329505 4.82951C0.118526 5.04048 0 5.32663 0 5.625V7.875C0 8.17337 0.118526 8.45952 0.329505 8.67049C0.540483 8.88147 0.826631 9 1.125 9H3.375C3.67337 9 3.95952 8.88147 4.17049 8.67049C4.38147 8.45952 4.5 8.17337 4.5 7.875V7.3125H6.75V9.5625C6.75 10.0101 6.92779 10.4393 7.24426 10.7557C7.56072 11.0722 7.98995 11.25 8.4375 11.25H9.5625V12.375C9.5625 12.6734 9.68103 12.9595 9.89201 13.1705C10.103 13.3815 10.3891 13.5 10.6875 13.5H14.0625C14.3609 13.5 14.647 13.3815 14.858 13.1705C15.069 12.9595 15.1875 12.6734 15.1875 12.375V9C15.1875 8.70163 15.069 8.41548 14.858 8.20451C14.647 7.99353 14.3609 7.875 14.0625 7.875H10.6875C10.3891 7.875 10.103 7.99353 9.89201 8.20451C9.68103 8.41548 9.5625 8.70163 9.5625 9V10.125H8.4375C8.28832 10.125 8.14524 10.0657 8.03975 9.96025C7.93426 9.85476 7.875 9.71168 7.875 9.5625V3.9375C7.875 3.78832 7.93426 3.64524 8.03975 3.53975C8.14524 3.43426 8.28832 3.375 8.4375 3.375H9.5625V4.5C9.5625 4.79837 9.68103 5.08452 9.89201 5.29549C10.103 5.50647 10.3891 5.625 10.6875 5.625ZM3.375 7.875H1.125V5.625H3.375V7.875ZM10.6875 9H14.0625V12.375H10.6875V9ZM10.6875 1.125H14.0625V4.5H10.6875V1.125Z" fill="#FF5286"/>
</svg>
