<svg style="display: block;" viewBox="0 0 15 2.25" fill="none" xmlns="http://www.w3.org/2000/svg">
<path id="Vector" d="M8.625 1.125C8.625 1.3475 8.55902 1.56501 8.4354 1.75002C8.31179 1.93502 8.13609 2.07922 7.93052 2.16436C7.72495 2.24951 7.49875 2.27179 7.28052 2.22838C7.0623 2.18498 6.86184 2.07783 6.70451 1.92049C6.54717 1.76316 6.44003 1.5627 6.39662 1.34448C6.35321 1.12625 6.37549 0.900048 6.46064 0.694481C6.54578 0.488914 6.68998 0.313213 6.87498 0.189596C7.05999 0.0659798 7.2775 0 7.5 0C7.79837 0 8.08452 0.118526 8.2955 0.329505C8.50647 0.540483 8.625 0.826632 8.625 1.125ZM13.875 0C13.6525 0 13.435 0.0659798 13.25 0.189596C13.065 0.313213 12.9208 0.488914 12.8356 0.694481C12.7505 0.900048 12.7282 1.12625 12.7716 1.34448C12.815 1.5627 12.9222 1.76316 13.0795 1.92049C13.2368 2.07783 13.4373 2.18498 13.6555 2.22838C13.8738 2.27179 14.1 2.24951 14.3055 2.16436C14.5111 2.07922 14.6868 1.93502 14.8104 1.75002C14.934 1.56501 15 1.3475 15 1.125C15 0.826632 14.8815 0.540483 14.6705 0.329505C14.4595 0.118526 14.1734 0 13.875 0ZM1.125 0C0.902497 0 0.684989 0.0659798 0.499984 0.189596C0.314979 0.313213 0.170785 0.488914 0.085636 0.694481C0.000487447 0.900048 -0.0217913 1.12625 0.0216171 1.34448C0.0650254 1.5627 0.172171 1.76316 0.329505 1.92049C0.486839 2.07783 0.687295 2.18498 0.905524 2.22838C1.12375 2.27179 1.34995 2.24951 1.55552 2.16436C1.76109 2.07922 1.93679 1.93502 2.0604 1.75002C2.18402 1.56501 2.25 1.3475 2.25 1.125C2.25 0.826632 2.13147 0.540483 1.9205 0.329505C1.70952 0.118526 1.42337 0 1.125 0Z" fill="#CBD2E1"/>
</svg>
