<svg style="display: block;" viewBox="0 0 19.5 16.5" fill="none" xmlns="http://www.w3.org/2000/svg">
<path id="Vector" d="M18 0H1.5C1.10218 0 0.720644 0.158035 0.43934 0.43934C0.158035 0.720644 0 1.10218 0 1.5V15C0 15.3978 0.158035 15.7794 0.43934 16.0607C0.720644 16.342 1.10218 16.5 1.5 16.5H18C18.3978 16.5 18.7794 16.342 19.0607 16.0607C19.342 15.7794 19.5 15.3978 19.5 15V1.5C19.5 1.10218 19.342 0.720644 19.0607 0.43934C18.7794 0.158035 18.3978 0 18 0ZM3.75 10.5H2.25C2.05109 10.5 1.86032 10.421 1.71967 10.2803C1.57902 10.1397 1.5 9.94891 1.5 9.75C1.5 9.55109 1.57902 9.36032 1.71967 9.21967C1.86032 9.07902 2.05109 9 2.25 9H3.75C3.94891 9 4.13968 9.07902 4.28033 9.21967C4.42098 9.36032 4.5 9.55109 4.5 9.75C4.5 9.94891 4.42098 10.1397 4.28033 10.2803C4.13968 10.421 3.94891 10.5 3.75 10.5ZM3.75 7.5H2.25C2.05109 7.5 1.86032 7.42098 1.71967 7.28033C1.57902 7.13968 1.5 6.94891 1.5 6.75C1.5 6.55109 1.57902 6.36032 1.71967 6.21967C1.86032 6.07902 2.05109 6 2.25 6H3.75C3.94891 6 4.13968 6.07902 4.28033 6.21967C4.42098 6.36032 4.5 6.55109 4.5 6.75C4.5 6.94891 4.42098 7.13968 4.28033 7.28033C4.13968 7.42098 3.94891 7.5 3.75 7.5ZM3.75 4.5H2.25C2.05109 4.5 1.86032 4.42098 1.71967 4.28033C1.57902 4.13968 1.5 3.94891 1.5 3.75C1.5 3.55109 1.57902 3.36032 1.71967 3.21967C1.86032 3.07902 2.05109 3 2.25 3H3.75C3.94891 3 4.13968 3.07902 4.28033 3.21967C4.42098 3.36032 4.5 3.55109 4.5 3.75C4.5 3.94891 4.42098 4.13968 4.28033 4.28033C4.13968 4.42098 3.94891 4.5 3.75 4.5ZM18 15H6V1.5H18V15Z" fill="#ECF2FD"/>
</svg>
