<svg style="display: block;" viewBox="0 0 11.25 16.3125" fill="none" xmlns="http://www.w3.org/2000/svg">
<path id="Vector" d="M5.625 11.25C6.51982 11.2491 7.37772 10.8932 8.01046 10.2605C8.64319 9.62772 8.99907 8.76982 9 7.875V3.375C9 2.47989 8.64442 1.62145 8.01148 0.988514C7.37855 0.355579 6.5201 0 5.625 0C4.72989 0 3.87145 0.355579 3.23851 0.988514C2.60558 1.62145 2.25 2.47989 2.25 3.375V7.875C2.25093 8.76982 2.60681 9.62772 3.23954 10.2605C3.87228 10.8932 4.73018 11.2491 5.625 11.25ZM3.375 3.375C3.375 2.77826 3.61205 2.20597 4.03401 1.78401C4.45597 1.36205 5.02826 1.125 5.625 1.125C6.22174 1.125 6.79403 1.36205 7.21599 1.78401C7.63795 2.20597 7.875 2.77826 7.875 3.375V7.875C7.875 8.47174 7.63795 9.04403 7.21599 9.46599C6.79403 9.88795 6.22174 10.125 5.625 10.125C5.02826 10.125 4.45597 9.88795 4.03401 9.46599C3.61205 9.04403 3.375 8.47174 3.375 7.875V3.375ZM6.1875 13.4719V15.75C6.1875 15.8992 6.12824 16.0423 6.02275 16.1477C5.91726 16.2532 5.77418 16.3125 5.625 16.3125C5.47582 16.3125 5.33274 16.2532 5.22725 16.1477C5.12176 16.0423 5.0625 15.8992 5.0625 15.75V13.4719C3.67569 13.3308 2.39046 12.6804 1.45536 11.6466C0.520257 10.6128 0.00171289 9.26897 0 7.875C0 7.72581 0.0592633 7.58274 0.164753 7.47725C0.270242 7.37176 0.413316 7.3125 0.5625 7.3125C0.711684 7.3125 0.854758 7.37176 0.960247 7.47725C1.06574 7.58274 1.125 7.72581 1.125 7.875C1.125 9.06847 1.59911 10.2131 2.44302 11.057C3.28693 11.9009 4.43153 12.375 5.625 12.375C6.81847 12.375 7.96307 11.9009 8.80698 11.057C9.65089 10.2131 10.125 9.06847 10.125 7.875C10.125 7.72581 10.1843 7.58274 10.2898 7.47725C10.3952 7.37176 10.5383 7.3125 10.6875 7.3125C10.8367 7.3125 10.9798 7.37176 11.0852 7.47725C11.1907 7.58274 11.25 7.72581 11.25 7.875C11.2483 9.26897 10.7297 10.6128 9.79464 11.6466C8.85954 12.6804 7.57431 13.3308 6.1875 13.4719Z" fill="#CBD2E1"/>
</svg>
