<svg style="display: block;" viewBox="0 0 7.5 7.5" fill="none" xmlns="http://www.w3.org/2000/svg">
<g id="Group 1">
<path id="Vector" d="M7.28033 4.28033C7.42098 4.13968 7.5 3.94891 7.5 3.75C7.5 3.55109 7.42098 3.36032 7.28033 3.21967C7.13968 3.07902 6.94891 3 6.75 3H0.75C0.551088 3 0.360323 3.07902 0.219671 3.21967C0.0790185 3.36032 0 3.55109 0 3.75C0 3.94891 0.0790185 4.13968 0.219671 4.28033C0.360323 4.42098 0.551088 4.5 0.75 4.5H6.75C6.94891 4.5 7.13968 4.42098 7.28033 4.28033Z" fill="#ECF2FD"/>
<path id="Vector_2" d="M3 6.75L3 0.75C3 0.551088 3.07902 0.360322 3.21967 0.219669C3.36032 0.0790172 3.55109 8.69474e-09 3.75 0C3.94891 -8.69474e-09 4.13968 0.0790171 4.28033 0.219669C4.42098 0.360321 4.5 0.551088 4.5 0.75L4.5 6.75C4.5 6.94891 4.42098 7.13968 4.28033 7.28033C4.13968 7.42098 3.94891 7.5 3.75 7.5C3.55109 7.5 3.36032 7.42098 3.21967 7.28033C3.07902 7.13968 3 6.94891 3 6.75Z" fill="#ECF2FD"/>
</g>
</svg>
