<svg style="display: block;" viewBox="0 0 19.5 19.4981" fill="none" xmlns="http://www.w3.org/2000/svg">
<path id="Vector" d="M19.5 9.746C19.5004 11.4293 19.0649 13.084 18.236 14.5491C17.4072 16.0142 16.2131 17.2398 14.77 18.1065C13.327 18.9732 11.6841 19.4515 10.0014 19.4949C8.31863 19.5383 6.6533 19.1453 5.1675 18.3541L1.97531 19.4182C1.71102 19.5063 1.4274 19.5191 1.15624 19.4551C0.885089 19.3911 0.637113 19.2529 0.44011 19.0559C0.243108 18.8589 0.104864 18.6109 0.0408727 18.3398C-0.0231183 18.0686 -0.0103272 17.785 0.0778122 17.5207L1.14187 14.3285C0.446389 13.0209 0.0579347 11.5721 0.0059975 10.0919C-0.0459397 8.61177 0.240005 7.13926 0.842128 5.78613C1.44425 4.433 2.34672 3.23483 3.48105 2.28256C4.61537 1.33029 5.95173 0.648948 7.38869 0.290259C8.82565 -0.0684305 10.3254 -0.0950433 11.7742 0.21244C13.223 0.519923 14.5827 1.15342 15.7501 2.06485C16.9175 2.97628 17.8619 4.14168 18.5116 5.47259C19.1614 6.80351 19.4994 8.26495 19.5 9.746ZM18 9.746C17.9996 8.48049 17.7082 7.23203 17.1481 6.0972C16.588 4.96237 15.7744 3.9716 14.7701 3.20153C13.7659 2.43147 12.5979 1.90276 11.3567 1.6563C10.1154 1.40985 8.83405 1.45226 7.61178 1.78025C6.38951 2.10824 5.25909 2.71302 4.30796 3.54781C3.35682 4.38259 2.61049 5.42499 2.12668 6.59437C1.64288 7.76375 1.43458 9.02876 1.5179 10.2915C1.60122 11.5543 1.97393 12.781 2.60719 13.8766C2.66034 13.9686 2.69334 14.0708 2.704 14.1765C2.71467 14.2822 2.70276 14.389 2.66906 14.4898L1.5 17.996L5.00625 16.8269C5.08262 16.8009 5.16275 16.7876 5.24344 16.7876C5.37516 16.7878 5.5045 16.8227 5.61844 16.8888C6.87263 17.6145 8.29581 17.997 9.74479 17.9979C11.1938 17.9988 12.6174 17.6181 13.8725 16.894C15.1276 16.17 16.1699 15.1281 16.8945 13.8733C17.619 12.6185 18.0003 11.195 18 9.746Z" fill="#ECF2FD"/>
</svg>
