<svg style="display: block;" viewBox="0 0 13.5 13.5" fill="none" xmlns="http://www.w3.org/2000/svg">
<path id="Vector" d="M13.5 6.75C13.5 6.89918 13.4407 7.04226 13.3352 7.14775C13.2298 7.25324 13.0867 7.3125 12.9375 7.3125H7.3125V12.9375C7.3125 13.0867 7.25324 13.2298 7.14775 13.3352C7.04226 13.4407 6.89918 13.5 6.75 13.5C6.60082 13.5 6.45774 13.4407 6.35225 13.3352C6.24676 13.2298 6.1875 13.0867 6.1875 12.9375V7.3125H0.5625C0.413316 7.3125 0.270242 7.25324 0.164753 7.14775C0.0592633 7.04226 0 6.89918 0 6.75C0 6.60082 0.0592633 6.45774 0.164753 6.35225C0.270242 6.24676 0.413316 6.1875 0.5625 6.1875H6.1875V0.5625C6.1875 0.413316 6.24676 0.270242 6.35225 0.164753C6.45774 0.0592633 6.60082 0 6.75 0C6.89918 0 7.04226 0.0592633 7.14775 0.164753C7.25324 0.270242 7.3125 0.413316 7.3125 0.5625V6.1875H12.9375C13.0867 6.1875 13.2298 6.24676 13.3352 6.35225C13.4407 6.45774 13.5 6.60082 13.5 6.75Z" fill="#CBD2E1"/>
</svg>
