<svg style="display: block;" viewBox="0 0 12.3751 15.7518" fill="none" xmlns="http://www.w3.org/2000/svg">
<path id="Vector" d="M9.56259 15.1893C9.56259 15.3385 9.50333 15.4816 9.39784 15.587C9.29235 15.6925 9.14928 15.7518 9.00009 15.7518H3.37509C3.22591 15.7518 3.08283 15.6925 2.97734 15.587C2.87186 15.4816 2.81259 15.3385 2.81259 15.1893C2.81259 15.0401 2.87186 14.897 2.97734 14.7915C3.08283 14.6861 3.22591 14.6268 3.37509 14.6268H9.00009C9.14928 14.6268 9.29235 14.6861 9.39784 14.7915C9.50333 14.897 9.56259 15.0401 9.56259 15.1893ZM12.3751 6.1893C12.3775 7.12701 12.1657 8.05289 11.7558 8.89626C11.3458 9.73964 10.7486 10.4782 10.0098 11.0556C9.87163 11.1615 9.75951 11.2976 9.68201 11.4535C9.6045 11.6093 9.56365 11.7809 9.56259 11.9549V12.3768C9.56259 12.6752 9.44407 12.9613 9.23309 13.1723C9.02211 13.3833 8.73596 13.5018 8.43759 13.5018H3.93759C3.63922 13.5018 3.35308 13.3833 3.1421 13.1723C2.93112 12.9613 2.81259 12.6752 2.81259 12.3768V11.9549C2.81248 11.7829 2.77293 11.6133 2.69699 11.4589C2.62105 11.3046 2.51075 11.1698 2.37454 11.0648C1.63753 10.4908 1.04075 9.75663 0.629374 8.91792C0.217998 8.07921 0.00280812 7.15791 9.20036e-05 6.22375C-0.0181892 2.87266 2.69025 0.0819522 6.03853 0.00179591C6.86354 -0.0180852 7.68419 0.127271 8.45219 0.429308C9.22018 0.731346 9.91999 1.18396 10.5104 1.76052C11.1009 2.33707 11.57 3.02591 11.8903 3.7865C12.2105 4.54708 12.3753 5.36405 12.3751 6.1893ZM11.2501 6.1893C11.2503 5.51406 11.1154 4.8456 10.8534 4.22328C10.5913 3.60096 10.2075 3.03734 9.72433 2.56561C9.2412 2.09388 8.66858 1.72356 8.04018 1.47647C7.41177 1.22937 6.74029 1.11048 6.06525 1.1268C3.32306 1.19148 1.11033 3.47453 1.12509 6.21672C1.12766 6.98072 1.30396 7.73414 1.64066 8.41996C1.97736 9.10578 2.46563 9.70603 3.06853 10.1753C3.33954 10.386 3.55876 10.6559 3.70939 10.9644C3.86003 11.2728 3.93809 11.6116 3.93759 11.9549V12.3768H8.43759V11.9549C8.43837 11.6107 8.51777 11.2711 8.66972 10.9622C8.82167 10.6533 9.04217 10.3832 9.31439 10.1725C9.91915 9.69988 10.4079 9.09533 10.7434 8.405C11.0789 7.71468 11.2522 6.95682 11.2501 6.1893ZM10.1174 5.53258C9.9715 4.71786 9.57953 3.9674 8.99422 3.38221C8.4089 2.79702 7.65835 2.40521 6.84361 2.25953C6.77076 2.24725 6.6962 2.24944 6.62419 2.26597C6.55218 2.28251 6.48414 2.31306 6.42394 2.35589C6.36374 2.39872 6.31257 2.45299 6.27334 2.5156C6.23412 2.57821 6.20761 2.64793 6.19533 2.72078C6.18305 2.79363 6.18523 2.86819 6.20177 2.9402C6.2183 3.01221 6.24886 3.08025 6.29169 3.14045C6.33452 3.20065 6.38879 3.25182 6.4514 3.29105C6.514 3.33027 6.58372 3.35678 6.65658 3.36906C7.82165 3.56523 8.81025 4.55383 9.00783 5.72101C9.03008 5.85202 9.098 5.97092 9.19955 6.05663C9.30109 6.14235 9.42971 6.18935 9.56259 6.1893C9.59438 6.18911 9.62611 6.18652 9.65751 6.18156C9.80454 6.15646 9.93558 6.07399 10.0218 5.95229C10.1081 5.83058 10.1424 5.67961 10.1174 5.53258Z" fill="#FFD500"/>
</svg>
