<svg width="18" height="18" viewBox="0 0 18 18" fill="none" xmlns="http://www.w3.org/2000/svg">
<path d="M15.9834 2.01651C15.8419 1.87513 15.6653 1.77402 15.4718 1.7236C15.2782 1.67317 15.0748 1.67526 14.8823 1.72963H14.8717L1.37596 5.82463C1.15686 5.88777 0.962123 6.016 0.81755 6.19232C0.672976 6.36864 0.585394 6.58473 0.566408 6.81196C0.547422 7.03918 0.597928 7.26681 0.711235 7.46468C0.824542 7.66255 0.9953 7.82131 1.20088 7.91994L7.17182 10.8281L10.0757 16.7955C10.166 16.9882 10.3096 17.1511 10.4896 17.2649C10.6695 17.3786 10.8782 17.4385 11.091 17.4374C11.1234 17.4374 11.1557 17.436 11.1881 17.4332C11.4151 17.4148 11.6311 17.3275 11.807 17.1828C11.983 17.0381 12.1105 16.8431 12.1724 16.6239L16.2646 3.12815C16.2646 3.12463 16.2646 3.12111 16.2646 3.1176C16.3197 2.92562 16.3227 2.72244 16.2733 2.52893C16.2238 2.33542 16.1238 2.15855 15.9834 2.01651ZM11.0974 16.3019L11.0938 16.3117V16.3068L8.27713 10.5201L11.6521 7.1451C11.7532 7.03875 11.8087 6.89714 11.8068 6.75046C11.8049 6.60378 11.7458 6.46364 11.6421 6.35992C11.5384 6.25619 11.3982 6.19709 11.2515 6.19521C11.1049 6.19333 10.9632 6.24883 10.8569 6.34986L7.4819 9.72486L1.69307 6.90814H1.68815H1.69799L15.1874 2.81244L11.0974 16.3019Z" fill="#CBD2E1"/>
</svg>
