<svg preserveAspectRatio="none" width="100%" height="100%" overflow="visible" style="display: block;" viewBox="0 0 496 152.18" fill="none" xmlns="http://www.w3.org/2000/svg">
<g id="Group 3">
<path id="Vector 2" opacity="0.3" d="M100.5 20.941C76.0103 23.5887 59 68.441 59 68.441C59 68.441 72.8816 106.834 91.5 123.441C128.348 156.308 169.387 145.04 217.5 133.941C256.218 125.009 269.185 95.9417 308 87.441C359.767 76.1037 396.866 132.384 442.5 105.441C476.133 85.5837 496 20.941 496 20.941C496 20.941 418.859 69.7577 370.5 54.441C339.072 44.4868 335.314 12.748 304 2.44098C242.53 -17.7918 210.929 95.1846 152 68.441C127.085 57.1341 127.702 18.0001 100.5 20.941Z" fill="white"/>
<path id="Vector 3" opacity="0.3" d="M395.5 27.941C419.99 30.5887 437 75.441 437 75.441C437 75.441 423.118 113.834 404.5 130.441C367.652 163.308 326.613 152.04 278.5 140.941C239.782 132.009 226.815 102.942 188 94.441C136.233 83.1037 99.1337 139.384 53.5 112.441C19.8672 92.5837 0 27.941 0 27.941C0 27.941 77.1408 76.7577 125.5 61.441C156.928 51.4868 160.686 19.748 192 9.44098C253.47 -10.7918 285.071 102.185 344 75.441C368.915 64.1341 368.298 25.0001 395.5 27.941Z" fill="white"/>
</g>
</svg>
