<svg style="display: block;" viewBox="0 0 10.5487 8.8621" fill="none" xmlns="http://www.w3.org/2000/svg">
<path id="Vector" d="M10.3618 4.87956L6.5649 8.67643C6.44602 8.79531 6.28478 8.8621 6.11666 8.8621C5.94854 8.8621 5.7873 8.79531 5.66842 8.67643C5.54954 8.55755 5.48275 8.39631 5.48275 8.22819C5.48275 8.06006 5.54954 7.89883 5.66842 7.77995L8.38477 5.06465H0.632812C0.46498 5.06465 0.304022 4.99798 0.185347 4.87931C0.0666711 4.76063 0 4.59967 0 4.43184C0 4.26401 0.0666711 4.10305 0.185347 3.98437C0.304022 3.8657 0.46498 3.79903 0.632812 3.79903H8.38477L5.66947 1.08215C5.55059 0.963271 5.4838 0.802033 5.4838 0.63391C5.4838 0.465787 5.55059 0.304549 5.66947 0.185668C5.78835 0.0667867 5.94959 1.77147e-09 6.11771 0C6.28584 -1.77147e-09 6.44708 0.0667867 6.56596 0.185668L10.3628 3.98254C10.4218 4.04141 10.4686 4.11136 10.5005 4.18836C10.5324 4.26537 10.5488 4.34792 10.5487 4.43127C10.5486 4.51462 10.532 4.59713 10.5 4.67406C10.4679 4.75099 10.4209 4.82082 10.3618 4.87956Z" fill="#2563EB"/>
</svg>
