<svg width="18" height="18" viewBox="0 0 18 18" fill="none" xmlns="http://www.w3.org/2000/svg">
<mask id="mask0_21_290" style="mask-type:luminance" maskUnits="userSpaceOnUse" x="0" y="0" width="18" height="18">
<path d="M17.7907 7.36364H9.2093V10.8409H14.1488C13.6884 13.05 11.7628 14.3182 9.2093 14.3182C6.19535 14.3182 3.76744 11.9455 3.76744 9C3.76744 6.05455 6.19535 3.68182 9.2093 3.68182C10.507 3.68182 11.6791 4.13183 12.6 4.86819L15.2791 2.25C13.6465 0.859091 11.5535 0 9.2093 0C4.10233 0 0 4.00909 0 9C0 13.9909 4.10233 18 9.2093 18C13.814 18 18 14.7273 18 9C18 8.46818 17.9163 7.89545 17.7907 7.36364Z" fill="white"/>
</mask>
<g mask="url(#mask0_21_290)">
<path d="M-0.837219 14.3182V3.68182L6.27906 9.00001L-0.837219 14.3182Z" fill="#FBBC05"/>
</g>
<mask id="mask1_21_290" style="mask-type:luminance" maskUnits="userSpaceOnUse" x="0" y="0" width="18" height="18">
<path d="M17.7907 7.36364H9.2093V10.8409H14.1488C13.6884 13.05 11.7628 14.3182 9.2093 14.3182C6.19535 14.3182 3.76744 11.9455 3.76744 9C3.76744 6.05455 6.19535 3.68182 9.2093 3.68182C10.507 3.68182 11.6791 4.13183 12.6 4.86819L15.2791 2.25C13.6465 0.859091 11.5535 0 9.2093 0C4.10233 0 0 4.00909 0 9C0 13.9909 4.10233 18 9.2093 18C13.814 18 18 14.7273 18 9C18 8.46818 17.9163 7.89545 17.7907 7.36364Z" fill="white"/>
</mask>
<g mask="url(#mask1_21_290)">
<path d="M-0.837219 3.68182L6.27906 9.00001L9.20929 6.50456L19.2558 4.9091V-0.818176H-0.837219V3.68182Z" fill="#EA4335"/>
</g>
<mask id="mask2_21_290" style="mask-type:luminance" maskUnits="userSpaceOnUse" x="0" y="0" width="18" height="18">
<path d="M17.7907 7.36364H9.2093V10.8409H14.1488C13.6884 13.05 11.7628 14.3182 9.2093 14.3182C6.19535 14.3182 3.76744 11.9455 3.76744 9C3.76744 6.05455 6.19535 3.68182 9.2093 3.68182C10.507 3.68182 11.6791 4.13183 12.6 4.86819L15.2791 2.25C13.6465 0.859091 11.5535 0 9.2093 0C4.10233 0 0 4.00909 0 9C0 13.9909 4.10233 18 9.2093 18C13.814 18 18 14.7273 18 9C18 8.46818 17.9163 7.89545 17.7907 7.36364Z" fill="white"/>
</mask>
<g mask="url(#mask2_21_290)">
<path d="M-0.837219 14.3182L11.7209 4.9091L15.0279 5.31819L19.2558 -0.818176V18.8182H-0.837219V14.3182Z" fill="#34A853"/>
</g>
<mask id="mask3_21_290" style="mask-type:luminance" maskUnits="userSpaceOnUse" x="0" y="0" width="18" height="18">
<path d="M17.7907 7.36364H9.2093V10.8409H14.1488C13.6884 13.05 11.7628 14.3182 9.2093 14.3182C6.19535 14.3182 3.76744 11.9455 3.76744 9C3.76744 6.05455 6.19535 3.68182 9.2093 3.68182C10.507 3.68182 11.6791 4.13183 12.6 4.86819L15.2791 2.25C13.6465 0.859091 11.5535 0 9.2093 0C4.10233 0 0 4.00909 0 9C0 13.9909 4.10233 18 9.2093 18C13.814 18 18 14.7273 18 9C18 8.46818 17.9163 7.89545 17.7907 7.36364Z" fill="white"/>
</mask>
<g mask="url(#mask3_21_290)">
<path d="M19.2558 18.8182L6.27903 9.00001L4.60461 7.77273L19.2558 3.68182V18.8182Z" fill="#4285F4"/>
</g>
</svg>
